<svg xmlns="http://www.w3.org/2000/svg" width="993" height="95.311" viewBox="0 0 993 95.311"><defs><style>.a{fill:#152547;}</style></defs><path class="a" d="M90.593,746.291,2.88,810H4.537L92.25,746.291H256.719L169.006,810h1.656l87.713-63.709H422.844L335.131,810h1.657L424.5,746.291h164.47L501.258,810h1.656l87.713-63.709H755.1L667.384,810h1.655l87.713-63.709h164.47L833.51,810h1.656l87.713-63.709H993v-1H924.255L965.126,715.6a.526.526,0,0,0,.127-.693.437.437,0,0,0-.637-.139L922.6,745.291H758.13L799,715.6a.527.527,0,0,0,.128-.693.438.438,0,0,0-.638-.139l-42.016,30.518H592l40.87-29.686a.526.526,0,0,0,.128-.693.437.437,0,0,0-.637-.139l-42.017,30.518H425.877L466.749,715.6a.528.528,0,0,0,.127-.693.439.439,0,0,0-.638-.139l-42.016,30.518H259.752l40.87-29.686a.528.528,0,0,0,.127-.693.438.438,0,0,0-.638-.139L258.1,745.291H93.626L134.5,715.6a.526.526,0,0,0,.127-.693.437.437,0,0,0-.637-.139L91.969,745.291H0v1Z" transform="translate(0 -714.689)"/></svg>