<svg xmlns="http://www.w3.org/2000/svg" width="969.209" height="570.859" viewBox="0 0 969.209 570.859"><defs><style>.a,.b{fill:#ebebeb;}.b{opacity:0.332;}.c{fill:#e0e0e0;}.d{fill:#fafafa;}.e{fill:#f5f5f5;}.f{fill:#263238;}.g,.k,.o,.q,.u,.x{fill:#fff;}.g,.l,.m{opacity:0.3;}.h,.o,.v{opacity:0.2;}.i{fill:#febe44;}.j,.p{opacity:0.1;}.n{fill:#ebb376;}.q,.r{opacity:0.4;}.s{fill:#d58745;}.t{fill:#2e353a;}.u{opacity:0.5;}.w{fill:#b97964;}.x{opacity:0.7;}.y{fill:#a24e3f;}.z{opacity:0.6;}.aa{fill:#1a2e35;}</style></defs><g transform="translate(0 -179.305)"><g transform="translate(0 179.305)"><rect class="a" width="64.2" height="0.485" transform="translate(807.894 521.972)"/><rect class="a" width="16.845" height="0.485" transform="translate(625.198 527.245)"/><rect class="a" width="37.198" height="0.485" transform="translate(768.757 503.984)"/><rect class="a" width="83.72" height="0.485" transform="translate(101.689 507.24)"/><rect class="a" width="12.27" height="0.485" transform="translate(202.681 507.24)"/><rect class="a" width="181.591" height="0.485" transform="translate(254.844 515.421)"/><rect class="b" width="396.406" height="404.329" rx="19" transform="translate(74.067 0)"/><rect class="b" width="396.406" height="404.329" rx="19" transform="translate(493.327)"/><rect class="a" width="969.209" height="0.485" transform="translate(0 490.783)"/><rect class="c" width="43.614" height="366.322" transform="translate(130.824 125.275)"/><rect class="a" width="122.43" height="366.322" transform="translate(169.67 125.275)"/><rect class="d" width="97.483" height="97.483" transform="translate(182.153 137.739)"/><path class="c" d="M159.559,232.45H106.814a2.675,2.675,0,0,1-2.694-2.675h0a2.675,2.675,0,0,1,2.694-2.675h52.744a2.675,2.675,0,0,1,2.675,2.675h0a2.675,2.675,0,0,1-2.675,2.675Z" transform="translate(97.708 -37.353)"/><path class="c" d="M159.559,237.989H106.814a2.694,2.694,0,0,1-2.694-2.694h0a2.675,2.675,0,0,1,2.694-2.675h52.744a2.675,2.675,0,0,1,2.675,2.675h0a2.675,2.675,0,0,1-2.675,2.694Z" transform="translate(97.708 -32.173)"/><path class="c" d="M159.559,243.5H106.814a2.675,2.675,0,0,1-2.694-2.675h0a2.675,2.675,0,0,1,2.694-2.675h52.744a2.675,2.675,0,0,1,2.675,2.675h0a2.675,2.675,0,0,1-2.675,2.675Z" transform="translate(97.708 -26.983)"/><path class="a" d="M137.176,230.639H116.4l-5.466-5.486V213.446l5.466-5.486h20.78l5.486,5.486v11.708Z" transform="translate(104.099 -55.314)"/><rect class="d" width="97.483" height="97.483" transform="translate(182.153 244.566)"/><path class="c" d="M159.559,287.59H106.814a2.675,2.675,0,0,1-2.694-2.675h0a2.675,2.675,0,0,1,2.694-2.675h52.744a2.675,2.675,0,0,1,2.675,2.675h0a2.675,2.675,0,0,1-2.675,2.675Z" transform="translate(97.708 14.391)"/><path class="c" d="M159.559,293.08H106.814a2.675,2.675,0,0,1-2.694-2.675h0a2.675,2.675,0,0,1,2.694-2.675h52.744a2.675,2.675,0,0,1,2.675,2.675h0a2.675,2.675,0,0,1-2.675,2.675Z" transform="translate(97.708 19.543)"/><path class="c" d="M159.559,298.59H106.814a2.675,2.675,0,0,1-2.694-2.675h0a2.675,2.675,0,0,1,2.694-2.675h52.744a2.675,2.675,0,0,1,2.675,2.675h0a2.675,2.675,0,0,1-2.675,2.675Z" transform="translate(97.708 24.714)"/><path class="a" d="M137.176,285.73H116.4l-5.466-5.486V268.556l5.466-5.486h20.78l5.486,5.486v11.689Z" transform="translate(104.099 -3.598)"/><rect class="d" width="97.483" height="97.483" transform="translate(182.153 351.372)"/><path class="c" d="M159.559,342.66H106.814a2.675,2.675,0,0,1-2.694-2.675h0a2.675,2.675,0,0,1,2.694-2.675h52.744a2.675,2.675,0,0,1,2.675,2.675h0a2.675,2.675,0,0,1-2.675,2.675Z" transform="translate(97.708 66.07)"/><path class="c" d="M159.559,348.2H106.814a2.675,2.675,0,0,1-2.694-2.675h0a2.694,2.694,0,0,1,2.694-2.694h52.744a2.675,2.675,0,0,1,2.675,2.694h0a2.675,2.675,0,0,1-2.675,2.675Z" transform="translate(97.708 71.25)"/><path class="c" d="M159.559,353.71H106.814a2.675,2.675,0,0,1-2.694-2.675h0a2.675,2.675,0,0,1,2.694-2.675h52.744a2.675,2.675,0,0,1,2.675,2.675h0a2.675,2.675,0,0,1-2.675,2.675Z" transform="translate(97.708 76.44)"/><path class="a" d="M137.176,340.849H116.4l-5.466-5.486V323.656l5.466-5.486h20.78l5.486,5.486v11.708Z" transform="translate(104.099 48.109)"/></g><g transform="translate(99.421 706.278)"><ellipse class="e" cx="375.84" cy="21.943" rx="375.84" ry="21.943"/></g><g transform="translate(88.636 367.595)"><path class="f" d="M167.858,425.727l-48.848-17.989L69.619,425.747a2.617,2.617,0,0,1-3.509-2.462h0a2.6,2.6,0,0,1,1.512-2.365L119.009,397l50.864,23.843a2.617,2.617,0,0,1,1.512,2.365h0a2.617,2.617,0,0,1-3.528,2.52Z" transform="translate(-26.597 -66.206)"/><path class="g" d="M167.858,425.727l-48.848-17.989L69.619,425.747a2.617,2.617,0,0,1-3.509-2.462h0a2.6,2.6,0,0,1,1.512-2.365L119.009,397l50.864,23.843a2.617,2.617,0,0,1,1.512,2.365h0a2.617,2.617,0,0,1-3.528,2.52Z" transform="translate(-26.597 -66.206)"/><path class="h" d="M87.46,411.888,98.974,407.7l10.971,4.051v-9.576L98.974,397.04,87.46,402.371Z" transform="translate(-6.562 -66.169)"/><path class="f" d="M96.047,479.069h0a4.361,4.361,0,0,1-4.381-3.877l-1.376-14.48V340.53h11.456V460.712l-1.376,14.48a4.342,4.342,0,0,1-4.323,3.877Z" transform="translate(-3.906 -119.199)"/><path class="g" d="M96.047,479.069h0a4.361,4.361,0,0,1-4.381-3.877l-1.376-14.48V340.53h11.456V460.712l-1.376,14.48a4.342,4.342,0,0,1-4.323,3.877Z" transform="translate(-3.906 -119.199)"/><rect class="h" width="11.398" height="13.995" transform="translate(86.442 221.312)"/><path class="i" d="M112.26,276.631a4.807,4.807,0,0,1,4.342,2.5,168.332,168.332,0,0,1,21.09,116.3,4.245,4.245,0,0,1-4.051,3.78c-3.16.233-59.412,0-61.448,0a5.66,5.66,0,0,1-5.718-6.591A157.147,157.147,0,0,0,46.45,284.481a5.214,5.214,0,0,1,4.73-7.754C52.808,276.592,108.674,276.689,112.26,276.631Z" transform="translate(-45.667 -179.164)"/><path class="h" d="M112.26,276.631a4.807,4.807,0,0,1,4.342,2.5,168.332,168.332,0,0,1,21.09,116.3,4.245,4.245,0,0,1-4.051,3.78c-3.16.233-59.412,0-61.448,0a5.66,5.66,0,0,1-5.718-6.591A157.147,157.147,0,0,0,46.45,284.481a5.214,5.214,0,0,1,4.73-7.754C52.808,276.592,108.674,276.689,112.26,276.631Z" transform="translate(-45.667 -179.164)"/><path class="i" d="M66.533,392.59A157.148,157.148,0,0,0,46.509,284.446c-3.489-5.815,5.6-11.107,9.091-5.311A168.448,168.448,0,0,1,76.69,395.44c-1.2,6.649-11.359,3.877-10.157-2.791Z" transform="translate(-45.726 -179.168)"/><g class="j" transform="translate(0 97.458)"><path class="k" d="M66.533,392.59A157.148,157.148,0,0,0,46.509,284.446c-3.489-5.815,5.6-11.107,9.091-5.311A168.448,168.448,0,0,1,76.69,395.44c-1.2,6.649-11.359,3.877-10.157-2.791Z" transform="translate(-45.726 -276.626)"/></g><path class="i" d="M227.436,337.583a177.247,177.247,0,0,0-39.427-5.428c-13.7-.349-64.937,0-77.11,0a177.245,177.245,0,0,0-44,5.486c-9.033,2.307-6.261,15.333,1.938,15.507H225.052C233.446,353.458,236.566,339.928,227.436,337.583Z" transform="translate(-31.125 -127.203)"/><path class="l" d="M227.436,337.583a177.247,177.247,0,0,0-39.427-5.428c-13.7-.349-64.937,0-77.11,0a177.245,177.245,0,0,0-44,5.486c-9.033,2.307-6.261,15.333,1.938,15.507H225.052C233.446,353.458,236.566,339.928,227.436,337.583Z" transform="translate(-31.125 -127.203)"/><path class="i" d="M71.039,352.757a161.373,161.373,0,0,1,79.611,0c9.847,2.5,14.053-12.716,4.206-15.217a178.916,178.916,0,0,0-88,0C57,340.041,61.172,355.258,71.039,352.757Z" transform="translate(-31.177 -127.161)"/><g class="m" transform="translate(30.053 204.884)"><path class="k" d="M71.039,352.757a161.373,161.373,0,0,1,79.611,0c9.847,2.5,14.053-12.716,4.206-15.217a178.916,178.916,0,0,0-88,0C57,340.041,61.172,355.258,71.039,352.757Z" transform="translate(-61.23 -332.045)"/></g><path class="n" d="M139.86,300.986l17.814-.756L163,296.818a5.369,5.369,0,0,1,4.245-.7l3.877.95a5.447,5.447,0,0,0,5.447-1.725h0a5.447,5.447,0,0,0-1.531-8.335l-5.815-3.14a5.408,5.408,0,0,0-5.815.407l-9.382,6.94-14.131-.989Z" transform="translate(42.611 -172.99)"/><path class="i" d="M142.36,256.76,136.2,311.036l34.678,2.481-1.531,12.464s-35.066,6.125-47.918,2.617,4.264-62.243,4.264-62.243Z" transform="translate(20.824 -197.81)"/><path class="o" d="M142.36,256.76,136.2,311.036l34.678,2.481-1.531,12.464s-35.066,6.125-47.918,2.617,4.264-62.243,4.264-62.243Z" transform="translate(20.824 -197.81)"/><path class="p" d="M131.234,322.662c-9.052-4.71,3.1-49.895,7.385-64.782l-12.929,7.463s-17.116,58.734-4.264,62.243c7.909,2.152,24.191.679,35.57-.795C149.242,326.791,137.9,326.132,131.234,322.662Z" transform="translate(20.824 -196.759)"/><path class="i" d="M151.692,369.5A304.676,304.676,0,0,1,74,373.883s5.97-69.492,27.138-107.524A27.138,27.138,0,0,1,116.645,253.7c15.2-4.73,39.641-8.975,65.654,9.692C182.377,263.432,169.215,287.973,151.692,369.5Z" transform="translate(-19.193 -204.482)"/><path class="q" d="M151.692,369.5A304.676,304.676,0,0,1,74,373.883s5.97-69.492,27.138-107.524A27.138,27.138,0,0,1,116.645,253.7c15.2-4.73,39.641-8.975,65.654,9.692C182.377,263.432,169.215,287.973,151.692,369.5Z" transform="translate(-19.193 -204.482)"/><path class="i" d="M122.627,266.7a2.093,2.093,0,1,1-2.093-2.093,2.093,2.093,0,0,1,2.093,2.093Z" transform="translate(22.51 -190.443)"/><path class="i" d="M118.827,277.714a2.094,2.094,0,1,1-2.093-2.094A2.093,2.093,0,0,1,118.827,277.714Z" transform="translate(18.944 -180.111)"/><circle class="i" cx="2.093" cy="2.093" r="2.093" transform="translate(126.897 123.809)"/><path class="i" d="M112.537,304.454a2.093,2.093,0,1,1-2.093-2.074,2.094,2.094,0,0,1,2.093,2.074Z" transform="translate(13.042 -154.999)"/><path class="p" d="M152.712,297.117h0l-26.324,5.932-20.741-5.7-8.18-23.377L95.7,260.83H89.887s-5.563,41.87,13.433,59.064c11.844,10.719,31.189,3.741,44.06-3.043Q150.192,305.918,152.712,297.117Z" transform="translate(-4.996 -193.991)"/><path class="n" d="M135.14,376.68l-9.13,39.757,11.34,4.4,16.321-39.99Z" transform="translate(29.614 -85.275)"/><path class="f" d="M140.929,400.835l-10.293-5.505a1.105,1.105,0,0,0-1.338.252l-7.347,8.51a1.783,1.783,0,0,0,.155,2.539,1.6,1.6,0,0,0,.31.233c4.323,2.229,8.258,4.051,13.569,6.92,6.3,3.392,4.284,3.276,11.631,7.366,4.42,2.462,7.967-2.171,6.2-3.431-8.044-5.815-9.13-9.692-10.8-14.616A4.458,4.458,0,0,0,140.929,400.835Z" transform="translate(25.376 -67.89)"/><path class="f" d="M83.706,314.543l55.574-3.063s92.482,14.461,91.106,40.319-38.768,107.388-38.768,107.388l-22.059-6.125s16.806-81.976,27.758-95.564c0,0-69.066-8.1-86.357-12.7C101.365,342.262,78.434,346.546,83.706,314.543Z" transform="translate(-10.814 -146.46)"/><path class="h" d="M187.877,355.764a49.449,49.449,0,0,0-4.245-22.311c-5.137-11.631-47.472-18.589-67.728-21.323l-32.2,1.764c-5.272,32,17.659,27.719,27.138,30.259C124.219,347.739,168.357,353.38,187.877,355.764Z" transform="translate(-10.814 -145.85)"/><path class="n" d="M111.914,382.33l-1.454,40.765,12.27.581,8.161-40.765Z" transform="translate(15.022 -79.973)"/><path class="f" d="M123.729,401.757l-11.9.252a1.066,1.066,0,0,0-1.047.892l-2.287,11.2a1.938,1.938,0,0,0,1.415,2.19h.388c4.962-.174,9.343-.523,15.507-.64,7.288-.136,5.447.775,14.015.737,5.156,0,5.99-5.815,3.877-6.145-10.022-1.066-12.968-4.071-16.884-7.579A4.438,4.438,0,0,0,123.729,401.757Z" transform="translate(13.151 -61.756)"/><path class="f" d="M108.494,313.06s74.513,2.636,78.913,25.432S166.8,463.4,166.8,463.4H144.471s2.617-91.61,10.08-110.9c0,0-61.37,9.692-77.537-4.284-11.631-9.944,2.19-35.163,2.19-35.163Z" transform="translate(-20.734 -144.977)"/><path class="f" d="M127.927,382.03l27.778,7.734-5.079,10.681-25.316-6.28Z" transform="translate(28.957 -80.255)"/><path class="l" d="M127.927,382.03l27.778,7.734-5.079,10.681-25.316-6.28Z" transform="translate(28.957 -80.255)"/><path class="n" d="M126,279.138l22.195-7.308,14.209,6.358a4.478,4.478,0,0,1,2.6,3.276l1.493,8.083a4.478,4.478,0,0,1-4.4,5.311h0a4.556,4.556,0,0,1-2.869-1.027l-12.483-10.312-19.384,7.754Z" transform="translate(29.605 -183.668)"/><path class="f" d="M108.42,387.68,136.488,389l-2.636,11.185-25.432-1.318Z" transform="translate(13.108 -74.952)"/><path class="l" d="M108.42,387.68,136.488,389l-2.636,11.185-25.432-1.318Z" transform="translate(13.108 -74.952)"/><path class="i" d="M92.151,258.8c4.323-6.474,11.2-13.239,28.63,43.828l52.279-12.852,1.531,14.247s-42.645,22.854-59.761,19.656S80.268,276.59,92.151,258.8Z" transform="translate(-5.825 -199.845)"/><path class="o" d="M92.151,258.8c4.323-6.474,11.2-13.239,28.63,43.828l52.279-12.852,1.531,14.247s-42.645,22.854-59.761,19.656S80.268,276.59,92.151,258.8Z" transform="translate(-5.825 -199.845)"/><path class="n" d="M123.245,246.51l-9.905,9.285s3.877,12.038,13.743,12.038S130.96,252.6,130.96,252.6Z" transform="translate(17.725 -207.429)"/><path class="n" d="M130.759,271.789l4.807-2.52,2.035-3.063-.853-9.5a66.933,66.933,0,0,0-25.471-6.978l-.368,4.42,5.369,15.507,6.261,2.074Z" transform="translate(15.444 -204.407)"/><path class="p" d="M127.114,252.6l-7.754-6.087-1.318,1.221c-.756,4.536-1.628,13.957,3.392,17.659a6.223,6.223,0,0,0,5.621,1.163C131.165,262.967,127.114,252.6,127.114,252.6Z" transform="translate(21.59 -207.429)"/><path class="i" d="M129,273.066l7.443,3.877c5.234-6.222,3.877-14.945,2.733-19.5-.872-.465-1.745-.911-2.617-1.318.989,6.881.194,14.441-8.006,14.674-12.852.388-14.771-16.05-15.061-20.974l-2.772-.174c-4.071,18.2,7.327,27.293,7.327,27.293Z" transform="translate(14.446 -204.482)"/><path class="o" d="M129,273.066l7.443,3.877c5.234-6.222,3.877-14.945,2.733-19.5-.872-.465-1.745-.911-2.617-1.318.989,6.881.194,14.441-8.006,14.674-12.852.388-14.771-16.05-15.061-20.974l-2.772-.174c-4.071,18.2,7.327,27.293,7.327,27.293Z" transform="translate(14.446 -204.482)"/><path class="f" d="M137.563,234.63c7.095,4.594,5,16.108-2.4,20.838C133.066,242.287,137.563,234.63,137.563,234.63Z" transform="translate(37.678 -218.577)"/><path class="r" d="M137.563,234.63c7.095,4.594,5,16.108-2.4,20.838C133.066,242.287,137.563,234.63,137.563,234.63Z" transform="translate(37.678 -218.577)"/><path class="n" d="M120.821,244.882c-2.656,12.134-4.846,19.074-.64,27.138a16.153,16.153,0,0,0,28.611.329c5.583-9.866,8.994-28.049-1.182-36.5a16.322,16.322,0,0,0-26.789,9.072Z" transform="translate(21.932 -221.25)"/><path class="f" d="M124.391,261.3c6.494,3.334,10.661-8.044,9.692-13.569,8.432,5.815,27.39,4.924,32.953-2.772,6.067-8.432-3.043-15.507-11.282-18.124a4.032,4.032,0,0,0-5,3.2,1.725,1.725,0,0,1-.6.95,32.835,32.835,0,0,0-5.641-3.877,7.385,7.385,0,0,0-8.587,1.512c-.969.872-3.3,1.047-7.986-.523-9.692-3.3-11.379,7.288-6.649,9.343-4.284,2.617-11.359,9.808-7.54,16.128s7.095,14.674,4.943,16.05C120.728,270.412,124.236,268.318,124.391,261.3Z" transform="translate(17.083 -226.349)"/><path class="n" d="M115.58,245.478a11.146,11.146,0,0,0,3.082,7.444c2.539,2.578,5.466.64,6.125-2.791.582-3.1,0-8.161-3.257-9.44S115.561,242.009,115.58,245.478Z" transform="translate(19.827 -213.201)"/><path class="f" d="M128.14,243.9c-.271.969,0,1.938.659,2.074s1.357-.426,1.648-1.4,0-1.938-.678-2.055S128.412,242.935,128.14,243.9Z" transform="translate(31.516 -211.181)"/><path class="f" d="M133.73,245.683c-.271.969,0,1.938.659,2.055s1.357-.426,1.648-1.4,0-1.938-.678-2.055S134.021,244.772,133.73,245.683Z" transform="translate(36.761 -209.528)"/><path class="s" d="M133.106,244.71a38.2,38.2,0,0,0,2.21,9.692,5.815,5.815,0,0,1-4.846-.562Z" transform="translate(33.8 -209.118)"/><path class="f" d="M127.1,241.907a.677.677,0,0,1-.271-.116.6.6,0,0,1,0-.833h0a5.815,5.815,0,0,1,5.311-.969.582.582,0,0,1,.33.756h0a.582.582,0,0,1-.756.33h0a4.536,4.536,0,0,0-4.129.737A.523.523,0,0,1,127.1,241.907Z" transform="translate(30.227 -213.797)"/><path class="f" d="M138.1,246.36a.6.6,0,0,1-.33-.446,4.924,4.924,0,0,0-2.442-3.605.6.6,0,0,1-.155-.833.582.582,0,0,1,.659-.233h0a6.028,6.028,0,0,1,3.082,4.478.582.582,0,0,1-.465.678h0a.717.717,0,0,1-.349-.039Z" transform="translate(38.113 -212.397)"/><path class="f" d="M130.439,253.492a9.929,9.929,0,0,0,1.648.329.329.329,0,0,0,.388-.252h0a.329.329,0,0,0-.31-.368,9.111,9.111,0,0,1-6.843-4.42.329.329,0,0,0-.446-.155.31.31,0,0,0-.155.446,9.266,9.266,0,0,0,5.718,4.42Z" transform="translate(28.364 -205.475)"/><path class="t" d="M122.368,235.41a7.87,7.87,0,0,1-5.7-5.563,1.338,1.338,0,0,0-2.481-.155C112.54,233.2,111.784,238.046,122.368,235.41Z" transform="translate(17.614 -223.932)"/><path class="i" d="M169.847,239.92h-5.563a9.692,9.692,0,0,0-9.479,8.7L149.978,302.9a7.754,7.754,0,0,0,7.928,8.7h5.563Z" transform="translate(52.051 -213.613)"/><path class="g" d="M169.847,239.92h-5.563a9.692,9.692,0,0,0-9.479,8.7L149.978,302.9a7.754,7.754,0,0,0,7.928,8.7h5.563Z" transform="translate(52.051 -213.613)"/><path class="i" d="M250.546,311.624H159.867a7.754,7.754,0,0,1-7.928-8.7l4.827-54.276a9.692,9.692,0,0,1,9.479-8.7h90.679a7.754,7.754,0,0,1,7.928,8.7l-4.827,54.276A9.692,9.692,0,0,1,250.546,311.624Z" transform="translate(53.891 -213.596)"/><path class="h" d="M250.546,311.624H159.867a7.754,7.754,0,0,1-7.928-8.7l4.827-54.276a9.692,9.692,0,0,1,9.479-8.7h90.679a7.754,7.754,0,0,1,7.928,8.7l-4.827,54.276A9.692,9.692,0,0,1,250.546,311.624Z" transform="translate(53.891 -213.596)"/><path class="u" d="M185.951,256.489a5.061,5.061,0,0,1,.194-1.338,6.728,6.728,0,0,0-1.783-.271,6.862,6.862,0,1,0,6.862,6.862,5.253,5.253,0,0,1-5.272-5.253Z" transform="translate(77.933 -199.574)"/><path class="f" d="M180.212,307.166h6.978l-2.753-31.557a3.489,3.489,0,0,0-3.47-3.179h0a3.45,3.45,0,0,0-3.45,3.78Z" transform="translate(77.935 -183.105)"/><path class="g" d="M180.212,307.166h6.978l-2.753-31.557a3.489,3.489,0,0,0-3.47-3.179h0a3.45,3.45,0,0,0-3.45,3.78Z" transform="translate(77.935 -183.105)"/><path class="i" d="M208,304.237a18.318,18.318,0,1,0-36.617,0Z" transform="translate(72.186 -171.006)"/><path class="u" d="M208,304.237a18.318,18.318,0,1,0-36.617,0Z" transform="translate(72.186 -171.006)"/><path class="i" d="M183.752,298.43H154.83a3.47,3.47,0,0,1-3.45-3.47h0a3.45,3.45,0,0,1,3.45-3.45h28.921a3.45,3.45,0,0,1,3.45,3.45h0a3.47,3.47,0,0,1-3.45,3.47Z" transform="translate(53.422 -165.2)"/><path class="g" d="M183.752,298.43H154.83a3.47,3.47,0,0,1-3.45-3.47h0a3.45,3.45,0,0,1,3.45-3.45h28.921a3.45,3.45,0,0,1,3.45,3.45h0a3.47,3.47,0,0,1-3.45,3.47Z" transform="translate(53.422 -165.2)"/><path class="i" d="M169.742,298.43h-28.9a3.45,3.45,0,0,1-3.45-3.47h0a3.45,3.45,0,0,1,3.45-3.45h28.9a3.47,3.47,0,0,1,3.47,3.45h0a3.47,3.47,0,0,1-3.47,3.47Z" transform="translate(40.293 -165.2)"/><path class="u" d="M169.742,298.43h-28.9a3.45,3.45,0,0,1-3.45-3.47h0a3.45,3.45,0,0,1,3.45-3.45h28.9a3.47,3.47,0,0,1,3.47,3.45h0a3.47,3.47,0,0,1-3.47,3.47Z" transform="translate(40.293 -165.2)"/></g><g transform="translate(363.613 355.158)"><path class="i" d="M292.536,276.851a4.846,4.846,0,0,0-4.361,2.5,168.448,168.448,0,0,0-21.09,116.305,4.264,4.264,0,0,0,4.051,3.78c3.16.213,59.412,0,61.448,0a5.68,5.68,0,0,0,5.718-6.591A157.244,157.244,0,0,1,358.326,284.7a5.214,5.214,0,0,0-4.73-7.754C351.968,276.812,296.122,276.909,292.536,276.851Z" transform="translate(-115.505 -166.521)"/><path class="h" d="M292.536,276.851a4.846,4.846,0,0,0-4.361,2.5,168.448,168.448,0,0,0-21.09,116.305,4.264,4.264,0,0,0,4.051,3.78c3.16.213,59.412,0,61.448,0a5.68,5.68,0,0,0,5.718-6.591A157.244,157.244,0,0,1,358.326,284.7a5.214,5.214,0,0,0-4.73-7.754C351.968,276.812,296.122,276.909,292.536,276.851Z" transform="translate(-115.505 -166.521)"/><path class="i" d="M308.735,392.81a157.245,157.245,0,0,1,20.024-108.144c3.509-5.815-5.6-11.107-9.091-5.311A168.43,168.43,0,0,0,298.6,395.66c1.2,6.649,11.34,3.877,10.138-2.791Z" transform="translate(-85.938 -166.524)"/><g class="v" transform="translate(209.959 110.322)"><path class="k" d="M308.735,392.81a157.245,157.245,0,0,1,20.024-108.144c3.509-5.815-5.6-11.107-9.091-5.311A168.43,168.43,0,0,0,298.6,395.66c1.2,6.649,11.34,3.877,10.138-2.791Z" transform="translate(-295.897 -276.846)"/></g><path class="f" d="M334,425.87l-48.848-17.989-49.391,18.008a2.636,2.636,0,0,1-3.528-2.462h0a2.6,2.6,0,0,1,1.531-2.365l51.387-23.842,50.864,23.823a2.636,2.636,0,0,1,1.493,2.365h0A2.617,2.617,0,0,1,334,425.87Z" transform="translate(-145.684 -53.563)"/><path class="g" d="M334,425.87l-48.848-17.989-49.391,18.008a2.636,2.636,0,0,1-3.528-2.462h0a2.6,2.6,0,0,1,1.531-2.365l51.387-23.842,50.864,23.823a2.636,2.636,0,0,1,1.493,2.365h0A2.617,2.617,0,0,1,334,425.87Z" transform="translate(-145.684 -53.563)"/><path class="h" d="M253.59,412.118l11.514-4.187,10.971,4.032v-9.556L265.1,397.25,253.59,402.6Z" transform="translate(-125.639 -53.534)"/><path class="f" d="M262.149,479.319h0a4.342,4.342,0,0,1-4.323-3.877l-1.376-14.48V340.78h11.4V460.962l-1.376,14.48A4.342,4.342,0,0,1,262.149,479.319Z" transform="translate(-122.956 -106.527)"/><path class="g" d="M262.149,479.319h0a4.342,4.342,0,0,1-4.323-3.877l-1.376-14.48V340.78h11.4V460.962l-1.376,14.48A4.342,4.342,0,0,1,262.149,479.319Z" transform="translate(-122.956 -106.527)"/><rect class="h" width="11.398" height="13.995" transform="translate(133.494 234.176)"/><path class="i" d="M215.658,337.788a179.378,179.378,0,0,1,39.427-5.427c13.685-.33,64.937,0,77.11,0a178.333,178.333,0,0,1,44,5.486c9.033,2.307,6.242,15.352-1.938,15.507h-156.2C209.532,353.664,206.431,340.153,215.658,337.788Z" transform="translate(-166.504 -114.565)"/><path class="l" d="M215.658,337.788a179.378,179.378,0,0,1,39.427-5.427c13.685-.33,64.937,0,77.11,0a178.333,178.333,0,0,1,44,5.486c9.033,2.307,6.242,15.352-1.938,15.507h-156.2C209.532,353.664,206.431,340.153,215.658,337.788Z" transform="translate(-166.504 -114.565)"/><path class="i" d="M336.893,352.967a161.9,161.9,0,0,0-79.63,0c-9.828,2.52-14.034-12.7-4.187-15.217a178.917,178.917,0,0,1,88,0C350.908,340.27,346.741,355.487,336.893,352.967Z" transform="translate(-131.387 -114.527)"/><g class="m" transform="translate(116.079 217.728)"><path class="k" d="M336.893,352.967a161.9,161.9,0,0,0-79.63,0c-9.828,2.52-14.034-12.7-4.187-15.217a178.917,178.917,0,0,1,88,0C350.908,340.27,346.741,355.487,336.893,352.967Z" transform="translate(-247.465 -332.255)"/></g><path class="f" d="M258.3,263.7s-9.537-.93-6.571-15.1,2.714-27.622,23.765-26.091c0,0,16.67-4.168,21.323,11.495s11.631,26.769.543,31.383c-13.957,5.815-17.446-7.056-17.446-7.056L259.5,260.274Z" transform="translate(-127.925 -217.982)"/><path class="w" d="M286.359,254.245c-12.076-1.725-6.261,40.28-17.1,48.034-5.99,4.148-36.113-7-36.113-7L228.9,281.712a2.442,2.442,0,0,0-1.415-1.551l-6.28-2.5a2.442,2.442,0,0,0-3.218,2.849l2.268,10.022a2.424,2.424,0,0,0,.62,1.163l8.742,9.285s35.919,17.446,44.584,14.519c10.157-3.354,13.918-21.846,16.438-32.856C292.62,274.308,295.605,255.563,286.359,254.245Z" transform="translate(-159.106 -187.781)"/><path class="w" d="M252.8,384.07l3.664,28.32-10.312.271L238.73,385.33Z" transform="translate(-139.584 -65.903)"/><path class="f" d="M252.392,398.01h11.766a1.124,1.124,0,0,1,1.066.853l2.4,11.01a1.783,1.783,0,0,1-1.357,2.152,1.341,1.341,0,0,1-.388,0c-4.865,0-9.188-.388-15.255-.388-7.153,0-5.35.853-13.763.95-5.059,0-5.97-5.718-3.877-5.99,9.847-1.221,12.638-4.187,16.438-7.754a4.245,4.245,0,0,1,2.966-.833Z" transform="translate(-145.958 -52.84)"/><path class="p" d="M243.033,401.186l-4.3-15.856,14.073-1.26,2.113,16.36Z" transform="translate(-139.584 -65.903)"/><path class="f" d="M274.916,296.36H258.265a92.421,92.421,0,0,0-5.253,23.261c-.872,11.824,21.9,3.063,21.9,3.063l1.938-16.205Z" transform="translate(-126.205 -148.211)"/><path class="w" d="M219.359,365.951l-10.971,32-9.207-2.636,7.463-33.748Z" transform="translate(-176.699 -87.017)"/><path class="f" d="M210.238,377.8l11.32,3.431a1.086,1.086,0,0,1,.814,1.085l-.426,11.243a1.8,1.8,0,0,1-1.938,1.764,1.22,1.22,0,0,1-.368,0c-4.691-1.318-8.82-2.656-14.693-4.187-6.92-1.8-5.389-.523-13.569-2.539-4.924-1.2-4.361-7.017-2.21-6.746,9.828,1.279,13.317-1.338,17.872-3.78a4.4,4.4,0,0,1,3.2-.271Z" transform="translate(-187.582 -71.959)"/><path class="p" d="M211.793,383.4l-10.933-2.811,4.206-19.016,12.716,4.381Z" transform="translate(-175.122 -87.017)"/><path class="f" d="M356.681,295.58s16.942,28.34,14.015,52.008-24.812,36.19-108.958-4.129c0,0-17.271,17.872-45.9,94.42L201.22,433.5s16.515-88.489,31.267-113.669,80.347,4.381,85.29-.582c4.42-4.42.581-21.9.581-21.9Z" transform="translate(-174.784 -148.943)"/><path class="i" d="M220.566,371.524l-3.063,5.912-17.523-5.912V364.74Z" transform="translate(-175.948 -84.042)"/><path class="i" d="M317.8,258.668l-59.626-4.458a5.815,5.815,0,0,0-6.261,6.377,70.393,70.393,0,0,1,1.008,10c-.523,6.319-3.877,15.779-2.791,20.1.911,3.45,4.536,7.366,5.97,11.262,3.121,8.432,3.644,35.744,3.644,35.744,19.268,3.121,53.558-1.512,53.558-1.512-7.754-27.739,3.877-60.091,7.347-73.544a3.2,3.2,0,0,0-2.85-3.974Z" transform="translate(-129.084 -187.784)"/><path class="x" d="M317.8,258.668l-59.626-4.458a5.815,5.815,0,0,0-6.261,6.377,70.393,70.393,0,0,1,1.008,10c-.523,6.319-3.877,15.779-2.791,20.1.911,3.45,4.536,7.366,5.97,11.262,3.121,8.432,3.644,35.744,3.644,35.744,19.268,3.121,53.558-1.512,53.558-1.512-7.754-27.739,3.877-60.091,7.347-73.544a3.2,3.2,0,0,0-2.85-3.974Z" transform="translate(-129.084 -187.784)"/><path class="p" d="M304.646,273.4l-20.605,21.09L254.674,300.4h-.194c.271,3.237.465,6.494.62,9.363,8.122,0,34.659-.562,42.316-7.23a43.884,43.884,0,0,0,9.324-12.91,134.733,134.733,0,0,1,1.842-14.112Z" transform="translate(-124.804 -169.757)"/><path class="h" d="M234.743,326.107l-4.594-3.567s-16.225,8.781-8.161,33.787h0a294.516,294.516,0,0,1,14.325-26.77Z" transform="translate(-157.405 -123.644)"/><path class="f" d="M303.331,343.551c-15.294-3.664-35.085-11.01-60.672-23.261,0,0-19.752.271-21.071,14.945S254.909,451.54,254.909,451.54l15.992-1.376S261.48,348.9,259.271,343.648Z" transform="translate(-155.705 -125.755)"/><path class="h" d="M235.724,320.28a33.165,33.165,0,0,0-6.784.969,142.314,142.314,0,0,0,35.706,22.311H296.4C281.1,339.9,261.311,332.55,235.724,320.28Z" transform="translate(-148.771 -125.764)"/><path class="i" d="M258.088,385.88l.426,6.571L239.886,393.9l-2.636-6.242Z" transform="translate(-140.973 -64.204)"/><path class="w" d="M279.391,242.18l-13.007,12.774c2.171,10.506-5.525,11.495-5.525,11.495s.62,3.7,10.041,3.2a57.8,57.8,0,0,0,12.522-1.512C277.744,263.6,278.577,249.779,279.391,242.18Z" transform="translate(-118.817 -199.055)"/><path class="p" d="M263.826,260.219a14.012,14.012,0,0,0-.116-5.931l11.631-11.4,1.124,1.318S274.119,258.746,263.826,260.219Z" transform="translate(-116.143 -198.389)"/><path class="w" d="M287.955,241.21c.95,12.522,1.628,17.814-3.761,25.044-8.122,10.913-23.707,9.343-28.4-2.656-4.206-10.8-5.059-29.464,6.416-36.093a17.155,17.155,0,0,1,25.742,13.7Z" transform="translate(-126.257 -215.008)"/><path class="y" d="M259.1,240a27.316,27.316,0,0,1-2.714,6.978,4.419,4.419,0,0,0,3.7.174Z" transform="translate(-123.012 -201.101)"/><path class="t" d="M265.275,236.673a.5.5,0,0,0,.213-.136.485.485,0,0,0,0-.7h0a5.815,5.815,0,0,0-5.214-1.279.494.494,0,0,0,.271.95,4.885,4.885,0,0,1,4.3,1.1A.485.485,0,0,0,265.275,236.673Z" transform="translate(-119.704 -206.361)"/><path class="t" d="M253.465,237.832a.5.5,0,0,0,.213-.136,4.885,4.885,0,0,1,4.071-1.706.543.543,0,0,0,.582-.407h0a.523.523,0,0,0-.446-.562,5.815,5.815,0,0,0-4.962,2.035.485.485,0,0,0,0,.7.5.5,0,0,0,.543.1Z" transform="translate(-126.406 -205.795)"/><path class="t" d="M262.516,239.417c.155,1.008-.271,1.938-.95,1.938s-1.3-.64-1.434-1.667.291-1.938.95-1.938S262.381,238.409,262.516,239.417Z" transform="translate(-119.524 -203.212)"/><path class="t" d="M256.619,240.237c.155,1.008-.271,1.938-.93,1.938s-1.3-.659-1.454-1.667.291-1.938.95-1.938S256.5,239.21,256.619,240.237Z" transform="translate(-125.063 -202.442)"/><path class="t" d="M256.08,238.758l-2.52-.368S255.072,240.115,256.08,238.758Z" transform="translate(-125.668 -202.611)"/><path class="t" d="M261.98,237.929l-2.52-.349S260.972,239.286,261.98,237.929Z" transform="translate(-120.131 -203.372)"/><path class="f" d="M263.911,244.593a7.139,7.139,0,0,0,.5-1.1.232.232,0,0,0-.116-.31h0a.233.233,0,0,0-.31.155,6.629,6.629,0,0,1-4.3,4.109.252.252,0,0,0-.194.291.233.233,0,0,0,.291.174,6.8,6.8,0,0,0,4.129-3.315Z" transform="translate(-120.105 -198.134)"/><path class="f" d="M277.555,224.25c-8.044-1.938-16.38,2.21-16.38,2.21s-9.3,8.277-7.172,16.283a9.693,9.693,0,0,1,3.276-1.57,11.978,11.978,0,0,1,2.365-8.51,17.793,17.793,0,0,0,.31,7.948,27,27,0,0,1,11.495,1.357s1.609-3.315,0-10.506a25.2,25.2,0,0,1,3.218,12.27c.1,7.443,9.692,9.246,9.692,9.246s5.99-.64,5.932-8.665S285.6,226.324,277.555,224.25Z" transform="translate(-125.549 -216.365)"/><path class="f" d="M270.768,227.41s-3.877-9.421-11.378-7.114S265.069,222.583,270.768,227.41Z" transform="translate(-122.309 -219.932)"/><path class="w" d="M277.506,240.766a9.15,9.15,0,0,1-3.644,5.99c-2.617,1.938-5.021-.194-5.234-3.237-.174-2.733.969-7.017,4.051-7.754a4.148,4.148,0,0,1,4.827,4.943Z" transform="translate(-111.543 -205.142)"/><path class="w" d="M327.888,256.417c-5.932-1.938-14.054,20.683-17.446,27.739-1.4,2.927-3.644,9.479-5.35,14.654a14.151,14.151,0,0,1-9.556,9.285l-31.771,9.014-12.91-3.877a3.314,3.314,0,0,0-2.849.446l-6.494,4.42a3.528,3.528,0,0,0-1.531,2.927h0a3.45,3.45,0,0,0,3.683,3.509l19.19-1.512s31.015,1.8,44.584-5.815S338.181,259.945,327.888,256.417Z" transform="translate(-138.412 -185.805)"/><path class="f" d="M327.327,291.54h-110.1a3,3,0,0,0,0,6.009h110.1a3,3,0,0,0,0-6.009Z" transform="translate(-162.585 -152.734)"/><path class="g" d="M327.327,291.54h-110.1a3,3,0,0,0,0,6.009h110.1a3,3,0,0,0,0-6.009Z" transform="translate(-162.585 -152.734)"/><path class="f" d="M228.5,324.461h37.586a1.415,1.415,0,0,0,1.338-1.938l-20.586-58.909a4.032,4.032,0,0,0-3.877-2.714H205.372a1.434,1.434,0,0,0-1.337,1.938l20.644,58.967a4.032,4.032,0,0,0,3.819,2.656Z" transform="translate(-172.229 -181.488)"/><path class="u" d="M228.5,324.461h37.586a1.415,1.415,0,0,0,1.338-1.938l-20.586-58.909a4.032,4.032,0,0,0-3.877-2.714H205.372a1.434,1.434,0,0,0-1.337,1.938l20.644,58.967a4.032,4.032,0,0,0,3.819,2.656Z" transform="translate(-172.229 -181.488)"/><path class="f" d="M227.557,324.461H265.2a1.415,1.415,0,0,0,1.338-1.938l-20.625-58.909a4.071,4.071,0,0,0-3.877-2.714H204.451a1.434,1.434,0,0,0-1.357,1.938l20.644,58.928A4.051,4.051,0,0,0,227.557,324.461Z" transform="translate(-173.111 -181.488)"/><ellipse class="k" cx="2.539" cy="4.245" rx="2.539" ry="4.245" transform="translate(57.476 108.057) rotate(-18.99)"/><path class="o" d="M239.974,297.549a3,3,0,0,1,0-6.009h65.906a3,3,0,0,1,0,6.009Z" transform="translate(-141.236 -152.734)"/></g><g transform="translate(198.862 499.682)"><path class="f" d="M416.519,515.855h0a3.974,3.974,0,0,0,3.877-4.187L409.618,301.33h-11.4l14.267,210.822A3.877,3.877,0,0,0,416.519,515.855Z" transform="translate(174.834 -288.071)"/><path class="u" d="M416.519,515.855h0a3.974,3.974,0,0,0,3.877-4.187L409.618,301.33h-11.4l14.267,210.822A3.877,3.877,0,0,0,416.519,515.855Z" transform="translate(174.834 -288.071)"/><path class="h" d="M409.658,301.37h-11.4l.95,14.015h11.165Z" transform="translate(174.872 -288.034)"/><path class="f" d="M327.35,515.817h0a3.974,3.974,0,0,1-3.877-4.187l10.72-210.26h11.4L331.343,512.192a3.974,3.974,0,0,1-3.993,3.625Z" transform="translate(104.685 -288.034)"/><path class="u" d="M327.35,515.817h0a3.974,3.974,0,0,1-3.877-4.187l10.72-210.26h11.4L331.343,512.192a3.974,3.974,0,0,1-3.993,3.625Z" transform="translate(104.685 -288.034)"/><path class="h" d="M328.62,315.385h11.165l.95-14.015h-11.4Z" transform="translate(109.521 -288.034)"/><path class="f" d="M203.441,515.817h0a3.974,3.974,0,0,0,3.877-4.187l-10.7-210.26h-11.4l14.247,210.822A3.974,3.974,0,0,0,203.441,515.817Z" transform="translate(-25.049 -288.034)"/><path class="u" d="M203.441,515.817h0a3.974,3.974,0,0,0,3.877-4.187l-10.7-210.26h-11.4l14.247,210.822A3.974,3.974,0,0,0,203.441,515.817Z" transform="translate(-25.049 -288.034)"/><path class="h" d="M196.618,301.37h-11.4l.95,14.015h11.165Z" transform="translate(-25.049 -288.034)"/><path class="f" d="M114.31,515.817h0a3.974,3.974,0,0,1-3.877-4.187l10.8-210.26h11.4L118.361,512.192A3.877,3.877,0,0,1,114.31,515.817Z" transform="translate(-95.236 -288.034)"/><path class="u" d="M114.31,515.817h0a3.974,3.974,0,0,1-3.877-4.187l10.8-210.26h11.4L118.361,512.192A3.877,3.877,0,0,1,114.31,515.817Z" transform="translate(-95.236 -288.034)"/><path class="h" d="M115.58,315.385h11.165l.95-14.015H116.3Z" transform="translate(-90.4 -288.034)"/><rect class="f" width="578.792" height="6.668" transform="translate(14.906 6.668)"/><rect class="g" width="578.792" height="6.668" transform="translate(14.906 6.668)"/><rect class="h" width="165.832" height="6.668" transform="translate(427.867 6.668)"/><rect class="i" width="608.605" height="6.668"/><rect class="l" width="195.644" height="6.668" transform="translate(412.96)"/></g><g transform="translate(535.235 346.298)"><path class="i" d="M362.8,297.981H333.88a3.451,3.451,0,0,1-3.45-3.45h0a3.45,3.45,0,0,1,3.45-3.45H362.8a3.45,3.45,0,0,1,3.45,3.45h0a3.45,3.45,0,0,1-3.45,3.45Z" transform="translate(-225.154 -144.306)"/><path class="g" d="M362.8,297.981H333.88a3.451,3.451,0,0,1-3.45-3.45h0a3.45,3.45,0,0,1,3.45-3.45H362.8a3.45,3.45,0,0,1,3.45,3.45h0a3.45,3.45,0,0,1-3.45,3.45Z" transform="translate(-225.154 -144.306)"/><path class="i" d="M348.8,297.981H319.9a3.47,3.47,0,0,1-3.47-3.45h0a3.47,3.47,0,0,1,3.47-3.45h28.9a3.47,3.47,0,0,1,3.47,3.451h0A3.47,3.47,0,0,1,348.8,297.981Z" transform="translate(-238.292 -144.306)"/><path class="u" d="M348.8,297.981H319.9a3.47,3.47,0,0,1-3.47-3.45h0a3.47,3.47,0,0,1,3.47-3.45h28.9a3.47,3.47,0,0,1,3.47,3.451h0A3.47,3.47,0,0,1,348.8,297.981Z" transform="translate(-238.292 -144.306)"/><path class="i" d="M289.689,240.492h-5.563a7.754,7.754,0,0,0-7.948,8.7l4.749,54.276a9.692,9.692,0,0,0,9.479,8.723h5.563Z" transform="translate(-276.12 -191.783)"/><path class="i" d="M289.689,240.492h-5.563a7.754,7.754,0,0,0-7.948,8.7l4.749,54.276a9.692,9.692,0,0,0,9.479,8.723h5.563Z" transform="translate(-276.12 -191.783)"/><path class="f" d="M310.768,306.736H303.79L306.833,272h6.978Z" transform="translate(-250.153 -162.211)"/><path class="g" d="M310.768,306.736H303.79L306.833,272h6.978Z" transform="translate(-250.153 -162.211)"/><path class="i" d="M383.046,312.2H292.367a9.692,9.692,0,0,1-9.479-8.723l-4.749-54.276a7.754,7.754,0,0,1,7.948-8.7h90.7a9.692,9.692,0,0,1,9.479,8.7l4.749,54.276a7.87,7.87,0,0,1-7.967,8.723Z" transform="translate(-274.28 -191.773)"/><path class="u" d="M383.046,312.2H292.367a9.692,9.692,0,0,1-9.479-8.723l-4.749-54.276a7.754,7.754,0,0,1,7.948-8.7h90.7a9.692,9.692,0,0,1,9.479,8.7l4.749,54.276a7.87,7.87,0,0,1-7.967,8.723Z" transform="translate(-274.28 -191.773)"/><path class="u" d="M375.361,242.3H284.682a4.691,4.691,0,0,0-4.749,5.195l4.749,54.276a5.815,5.815,0,0,0,5.66,5.214h90.679a4.71,4.71,0,0,0,4.749-5.214L381.022,247.5A5.815,5.815,0,0,0,375.361,242.3Z" transform="translate(-272.566 -190.083)"/><path class="i" d="M296.93,303.22a18.318,18.318,0,0,1,36.617,0Z" transform="translate(-256.591 -149.545)"/><path class="u" d="M296.93,303.22a18.318,18.318,0,0,1,36.617,0Z" transform="translate(-256.591 -149.545)"/><path class="k" d="M343.6,249.18H293.729a1.745,1.745,0,0,0-1.764,1.938,2.171,2.171,0,0,0,2.113,1.938h49.876a1.745,1.745,0,0,0,1.764-1.938A2.152,2.152,0,0,0,343.6,249.18Z" transform="translate(-261.26 -183.626)"/><path class="k" d="M337.074,253.37H294.1a1.745,1.745,0,0,0-1.764,1.938,2.152,2.152,0,0,0,2.113,1.938h42.975a1.745,1.745,0,0,0,1.764-1.938A2.171,2.171,0,0,0,337.074,253.37Z" transform="translate(-260.913 -179.694)"/><path class="k" d="M341.747,257.56H294.469a1.745,1.745,0,0,0-1.764,1.938,2.113,2.113,0,0,0,2.093,1.938h47.239A1.725,1.725,0,0,0,343.8,259.5,2.132,2.132,0,0,0,341.747,257.56Z" transform="translate(-260.565 -175.762)"/><path class="k" d="M335.14,261.74h-40.28a1.745,1.745,0,0,0-1.764,1.938,2.171,2.171,0,0,0,2.113,1.938h40.358a1.745,1.745,0,0,0,1.764-1.938,2.152,2.152,0,0,0-2.19-1.938Z" transform="translate(-260.199 -171.84)"/><g class="z" transform="translate(30.694 65.554)"><path class="k" d="M343.6,249.18H293.729a1.745,1.745,0,0,0-1.764,1.938,2.171,2.171,0,0,0,2.113,1.938h49.876a1.745,1.745,0,0,0,1.764-1.938A2.152,2.152,0,0,0,343.6,249.18Z" transform="translate(-291.954 -249.18)"/><path class="k" d="M337.074,253.37H294.1a1.745,1.745,0,0,0-1.764,1.938,2.152,2.152,0,0,0,2.113,1.938h42.975a1.745,1.745,0,0,0,1.764-1.938A2.171,2.171,0,0,0,337.074,253.37Z" transform="translate(-291.607 -245.248)"/><path class="k" d="M341.747,257.56H294.469a1.745,1.745,0,0,0-1.764,1.938,2.113,2.113,0,0,0,2.093,1.938h47.239A1.725,1.725,0,0,0,343.8,259.5,2.132,2.132,0,0,0,341.747,257.56Z" transform="translate(-291.26 -241.316)"/><path class="k" d="M335.14,261.74h-40.28a1.745,1.745,0,0,0-1.764,1.938,2.171,2.171,0,0,0,2.113,1.938h40.358a1.745,1.745,0,0,0,1.764-1.938,2.152,2.152,0,0,0-2.19-1.938Z" transform="translate(-290.894 -237.393)"/></g><path class="aa" d="M376.3,230.215s-11.475,2.19-11.282-4.807,12.038-3.741,12.038-3.741Z" transform="translate(-192.695 -210.155)"/><path class="r" d="M376.3,230.215s-11.475,2.19-11.282-4.807,12.038-3.741,12.038-3.741Z" transform="translate(-192.695 -210.155)"/><path class="y" d="M369.683,234.35l-5.253,8.258a7.308,7.308,0,0,0,6.552.64Z" transform="translate(-193.248 -197.543)"/><path class="aa" d="M365.5,234.7c0,1.066.543,1.938,1.241,1.938s1.318-.892,1.3-1.938-.523-1.938-1.241-1.938S365.539,233.632,365.5,234.7Z" transform="translate(-192.243 -199.035)"/><path class="w" d="M405.957,239.468c.465,14.15.969,20.14-5.447,28.03-10.157,8.374-27.138,9.363-31.848-4.361-4.206-12.367-4.265-33.38,8.975-40.358a19.384,19.384,0,0,1,28.32,16.69Z" transform="translate(-191.625 -210.453)"/><path class="h" d="M380.869,249.3l-.1-.7a2.6,2.6,0,0,0-3.237-2.113l-5.815,1.57A18.763,18.763,0,0,0,380.869,249.3Z" transform="translate(-186.406 -186.23)"/><path class="aa" d="M369.782,232.7a.562.562,0,0,1-.5-.194,4.361,4.361,0,0,0-3.625-1.628.582.582,0,0,1-.62-.485.543.543,0,0,1,.485-.62,5.35,5.35,0,0,1,4.613,1.939.562.562,0,0,1,0,.795h0A.485.485,0,0,1,369.782,232.7Z" transform="translate(-192.687 -201.86)"/><path class="w" d="M376.17,248.059l3.1,20.993,17.543-3.625-5.621-21.5Z" transform="translate(-182.23 -188.552)"/><path class="aa" d="M376.24,254.5l-2.966,2.365a27.449,27.449,0,0,1,1.124-16.166l-3.528-5.369.543-3.625s-5.486-8.878-1.2-11.514,7.017,2.849,7.017,2.849,2.946-8.762,8.1-7.56,2.52,6.688,2.52,6.688,8.335-6.028,12.27-3.063-.989,7.114-.989,7.114,9.983.233,10.312,4.168-4.071,4.284-4.071,4.284,6.591,2.287,6.474,5.815S406.6,244.2,406.6,244.2s6.688,4.265,5.253,7.986a4.109,4.109,0,0,1-5.156,2.539s3.47,4.439,2.307,6.843a4.245,4.245,0,0,1-4.09,2.113l-5.7,10.119a9.13,9.13,0,0,0-8.9,1.745l-10.235-16.825Z" transform="translate(-189.357 -215.362)"/><path class="w" d="M371.7,235.688a10.894,10.894,0,0,0,1.8,8.161c2.21,3.121,5.815,1.725,7.172-1.609,1.279-3.024,1.648-8.277-1.57-10.215a4.924,4.924,0,0,0-7.4,3.664Z" transform="translate(-186.582 -200.373)"/><path class="f" d="M403.317,259.453l-3.47-9.808a28.2,28.2,0,0,0-26.828,3.877l9.847,5.815Z" transform="translate(-185.186 -184.866)"/><path class="h" d="M399.362,252.037a41.133,41.133,0,0,0-23.842,1.531l5,2.985h20.45Z" transform="translate(-182.84 -181.966)"/><path class="w" d="M370.534,290.457l-12.949-6.494a2.927,2.927,0,0,0-2.384,0l-10.584,4.187a2.888,2.888,0,0,0-1.842,2.52l-.194,3.45a2.927,2.927,0,0,0,3.877,2.927l3.877-1.357a28.243,28.243,0,0,0,19.578.581Z" transform="translate(-213.754 -151.223)"/><path class="w" d="M345.118,290.909l-12.852-6.571a2.927,2.927,0,0,0-2.384-.1l-10.6,4.284a2.927,2.927,0,0,0-1.822,2.559l-.194,3.489a2.927,2.927,0,0,0,3.877,2.946l3.877-1.357a27.991,27.991,0,0,0,19.578.582Z" transform="translate(-237.515 -150.919)"/><path class="f" d="M426.995,256.189c-6.339,5.389-22.195,21.206-42.781,58.249h-26.3s-3.722,3.024-2.19,10.642c0,0,26.983,9.6,34.31,6.319s31.015-39.582,41.637-52.512c3.683-4.478,10.022-10.467.872-22.117a3.877,3.877,0,0,0-5.544-.582Z" transform="translate(-201.769 -177.899)"/><path class="h" d="M386.675,285.441l-6.319-5.951c-2.287,3.877-4.652,7.85-7.075,12.231H367l3.993,17.446a17.446,17.446,0,0,0,8.2-.426c1.938-.872,4.982-4.013,8.626-8.413Z" transform="translate(-190.836 -155.182)"/><path class="w" d="M374.69,386.8l6.009,29.115,11.844-1.764-2.849-28.34Z" transform="translate(-183.619 -55.41)"/><path class="h" d="M391.574,404.5l-1.88-18.686-15,.989,3.76,18.2Z" transform="translate(-183.619 -55.41)"/><path class="i" d="M456.276,317.07s6.009,31.557-14.577,31.557-48.015,6.746-48.015,6.746,7.889,7.482,9.692,102.988l-17.1.737s-28.4-107.8-22.8-119.639c7.889-16.69,48.751-22.389,48.751-22.389Z" transform="translate(-194.822 -119.917)"/><path class="i" d="M373.87,388.882l19.752-.582,1.008,9.634-19.5.853Z" transform="translate(-184.389 -53.073)"/><path class="u" d="M373.87,388.882l19.752-.582,1.008,9.634-19.5.853Z" transform="translate(-184.389 -53.073)"/><path class="i" d="M376.949,403.615a5.292,5.292,0,0,1-3.761-.5,1.086,1.086,0,0,1-.116-1.26,1.454,1.454,0,0,1,.834-.795c1.938-.814,6.591,1.124,6.8,1.2a.31.31,0,0,1,.174.291.349.349,0,0,1-.213.271,22.337,22.337,0,0,1-3.722.795Zm-2.268-2.152a1.94,1.94,0,0,0-.543.136.853.853,0,0,0-.523.485.732.732,0,0,0,0,.64c.659.737,3.78.368,6.048-.174a13.569,13.569,0,0,0-4.9-1.085Z" transform="translate(-185.277 -41.289)"/><path class="i" d="M379.3,404.4h-.136c-1.551-.465-4.827-2.791-4.73-4.206,0-.349.194-.775.989-.969a2.248,2.248,0,0,1,1.686.31,8.451,8.451,0,0,1,2.481,4.555.291.291,0,0,1,0,.271.233.233,0,0,1-.291.039Zm-3.625-4.633h-.136c-.5.116-.523.33-.543.407,0,.833,2.229,2.694,3.877,3.431a6.862,6.862,0,0,0-2.113-3.586,1.454,1.454,0,0,0-1.047-.252Z" transform="translate(-183.864 -42.868)"/><path class="f" d="M385.862,401.683l13.569-1.609a1.086,1.086,0,0,1,1.163.717l3.741,10.661a1.8,1.8,0,0,1-1.085,2.326l-.388.1c-4.865.5-9.207.756-15.255,1.473-7.133.872-5.234,1.512-13.569,2.636-5.04.659-6.649-4.962-4.555-5.505,9.692-2.423,10.332-5.505,13.7-9.46a4.284,4.284,0,0,1,2.675-1.337Z" transform="translate(-189.345 -42.032)"/><path class="p" d="M399.172,330.61H369.087L362.71,333.3a199.654,199.654,0,0,0,3.664,27.138l30.259-8.723c-1.667-7.851-2.966-9.072-2.966-9.072s2.753-.678,7.153-1.609Z" transform="translate(-194.862 -107.21)"/><path class="p" d="M392.31,338.759a28.042,28.042,0,0,0-.639,5.04,174.629,174.629,0,0,1,20.935-1.938,13.569,13.569,0,0,0,.969-17.6l-12.057,5.486Z" transform="translate(-167.685 -113.169)"/><path class="w" d="M356.8,392.33l11.165,27.138,10.894-2.191-7.482-29.037Z" transform="translate(-200.408 -53.129)"/><path class="h" d="M376.359,407.624l-4.982-19.384L356.8,392.33l7.269,17.64Z" transform="translate(-200.408 -53.129)"/><path class="i" d="M466.025,318s6.028,31.557-14.577,31.557-82.4,19-82.4,19,9.091,3.353,24.87,91.454l-17.853,4.051s-44.584-96.068-39.02-107.912c7.889-16.67,84.9-38.148,84.9-38.148Z" transform="translate(-219.399 -119.044)"/><path class="i" d="M355.81,394.946,377,390.41l2.19,8.762-20.315,4.691Z" transform="translate(-201.337 -51.093)"/><path class="u" d="M355.81,394.946,377,390.41l2.19,8.762-20.315,4.691Z" transform="translate(-201.337 -51.093)"/><path class="i" d="M361.031,406.344a5.467,5.467,0,0,1-3.741-.5,1.1,1.1,0,0,1-.116-1.279,1.454,1.454,0,0,1,.834-.795c1.938-.814,6.591,1.124,6.784,1.2a.349.349,0,0,1,.194.291.31.31,0,0,1-.213.271A22.168,22.168,0,0,1,361.031,406.344Zm-2.249-2.171a1.728,1.728,0,0,0-.543.136.776.776,0,0,0-.523.485.732.732,0,0,0,0,.64c.659.736,3.78.388,6.048-.174a13.566,13.566,0,0,0-4.982-1.1Z" transform="translate(-200.199 -38.746)"/><path class="i" d="M363.366,407.1h-.136c-1.551-.465-4.846-2.791-4.749-4.206,0-.349.194-.775.989-.95a2.151,2.151,0,0,1,1.686.291,8.393,8.393,0,0,1,2.5,4.555.291.291,0,0,1,0,.271.232.232,0,0,1-.291.039Zm-3.625-4.633h-.252c-.523.116-.523.33-.543.407,0,.853,2.229,2.714,3.877,3.431a6.842,6.842,0,0,0-2.093-3.586,1.454,1.454,0,0,0-1.047-.252Z" transform="translate(-198.832 -40.331)"/><path class="f" d="M369.964,404.384l13.472-1.609a1.066,1.066,0,0,1,1.163.717l3.761,10.661a1.822,1.822,0,0,1-1.1,2.326l-.368.1c-4.865.5-9.207.756-15.255,1.493-7.153.853-5.234,1.493-13.569,2.617-5.04.678-6.668-4.962-4.555-5.505,9.692-2.4,10.332-5.505,13.685-9.459a4.381,4.381,0,0,1,2.772-1.338Z" transform="translate(-204.345 -39.5)"/><path class="f" d="M365.67,257.4a4.555,4.555,0,0,1,4.652-4.633l39.718.775a27.235,27.235,0,0,1,23.261,14c9.207,16.438,21.323,50.069,21.032,113.378H388.427S366.058,298.75,365.67,257.4Z" transform="translate(-192.084 -180.257)"/><path class="r" d="M366.17,266.994c.95,9.518,2.5,20,4.381,30.608,9.983-20.916,4.633-38.032,4.633-38.032Z" transform="translate(-191.615 -173.876)"/><path class="f" d="M399.383,254.044c-4.633,5.408-11.824,16.225-33.612,55.885l-33.321,7.095s-3.722,3.063-2.19,10.778c0,0,35.764,6.145,43.091,2.83s26.033-31.46,34.62-46.018c3.547-6.009,5.428-17.853-5.234-30.53a2.21,2.21,0,0,0-3.353-.039Z" transform="translate(-225.661 -179.767)"/><path class="f" d="M474.857,425.689,425.989,407.7,376.6,425.708a2.617,2.617,0,0,1-3.509-2.462h0a2.636,2.636,0,0,1,1.512-2.365L425.989,397l50.883,23.843a2.617,2.617,0,0,1,1.493,2.365h0a2.6,2.6,0,0,1-3.509,2.481Z" transform="translate(-185.121 -44.909)"/><path class="g" d="M474.857,425.689,425.989,407.7,376.6,425.708a2.617,2.617,0,0,1-3.509-2.462h0a2.636,2.636,0,0,1,1.512-2.365L425.989,397l50.883,23.843a2.617,2.617,0,0,1,1.493,2.365h0a2.6,2.6,0,0,1-3.509,2.481Z" transform="translate(-185.121 -44.909)"/><path class="h" d="M394.44,411.888l11.514-4.206,10.991,4.051v-9.556l-10.991-5.156-11.514,5.35Z" transform="translate(-165.086 -44.89)"/><path class="f" d="M403.009,479.069h0a4.342,4.342,0,0,1-4.323-3.877l-1.376-14.48V340.53h11.4V460.712l-1.4,14.48a4.342,4.342,0,0,1-4.3,3.877Z" transform="translate(-162.392 -97.901)"/><path class="g" d="M403.009,479.069h0a4.342,4.342,0,0,1-4.323-3.877l-1.376-14.48V340.53h11.4V460.712l-1.4,14.48a4.342,4.342,0,0,1-4.3,3.877Z" transform="translate(-162.392 -97.901)"/><rect class="h" width="11.398" height="13.995" transform="translate(234.918 242.57)"/><path class="i" d="M521.576,337.563a177.089,177.089,0,0,0-39.427-5.428c-13.7-.349-64.937,0-77.11,0a178.332,178.332,0,0,0-44,5.486c-9.033,2.307-6.261,15.333,1.938,15.507H519.192C527.682,353.438,530.8,339.908,521.576,337.563Z" transform="translate(-201.698 -105.925)"/><path class="l" d="M521.576,337.563a177.089,177.089,0,0,0-39.427-5.428c-13.7-.349-64.937,0-77.11,0a178.332,178.332,0,0,0-44,5.486c-9.033,2.307-6.261,15.333,1.938,15.507H519.192C527.682,353.438,530.8,339.908,521.576,337.563Z" transform="translate(-201.698 -105.925)"/><path class="i" d="M365.222,352.737a161.372,161.372,0,0,1,79.611,0c9.847,2.5,14.053-12.716,4.206-15.217a178.915,178.915,0,0,0-88,0C351.207,340.021,355.375,355.257,365.222,352.737Z" transform="translate(-201.696 -105.883)"/><g class="m" transform="translate(153.731 226.142)"><path class="k" d="M365.222,352.737a161.372,161.372,0,0,1,79.611,0c9.847,2.5,14.053-12.716,4.206-15.217a178.915,178.915,0,0,0-88,0C351.207,340.021,355.375,355.257,365.222,352.737Z" transform="translate(-355.427 -332.025)"/></g><path class="i" d="M433.38,276.611a4.846,4.846,0,0,0-4.361,2.52,168.39,168.39,0,0,0-21.071,116.305A4.284,4.284,0,0,0,412,399.312c3.16.213,59.393,0,61.448,0a5.66,5.66,0,0,0,5.718-6.591A157.167,157.167,0,0,1,499.19,284.577c2.4-3.993-1.144-7.754-4.73-7.754C492.832,276.572,436.966,276.688,433.38,276.611Z" transform="translate(-154.945 -157.886)"/><path class="h" d="M433.38,276.611a4.846,4.846,0,0,0-4.361,2.52,168.39,168.39,0,0,0-21.071,116.305A4.284,4.284,0,0,0,412,399.312c3.16.213,59.393,0,61.448,0a5.66,5.66,0,0,0,5.718-6.591A157.167,157.167,0,0,1,499.19,284.577c2.4-3.993-1.144-7.754-4.73-7.754C492.832,276.572,436.966,276.688,433.38,276.611Z" transform="translate(-154.945 -157.886)"/><path class="i" d="M418.086,392.567A157.264,157.264,0,0,1,438.11,284.423c3.509-5.815-5.6-11.107-9.091-5.292a168.39,168.39,0,0,0-21.071,116.3c1.2,6.649,11.34,3.877,10.138-2.791Z" transform="translate(-154.945 -157.886)"/><g class="v" transform="translate(250.301 118.723)"><path class="k" d="M418.086,392.567A157.264,157.264,0,0,1,438.11,284.423c3.509-5.815-5.6-11.107-9.091-5.292a168.39,168.39,0,0,0-21.071,116.3c1.2,6.649,11.34,3.877,10.138-2.791Z" transform="translate(-405.246 -276.609)"/></g></g></g></svg>