<svg xmlns="http://www.w3.org/2000/svg" width="506.509" height="495.973" viewBox="0 0 506.509 495.973"><defs><style>.a{fill:#152547;}.b{fill:#1c315e;}.c{fill:#9271d2;}.d{fill:#ffd85e;}.e{fill:#38b8aa;}.f{fill:#ff663f;}.g{fill:#fc76c0;}.h{fill:#513793;}.i{fill:#83a3e7;}.j{fill:#1f9382;}.k,.o{fill:#fff;}.l{fill:#ebf3fc;}.m{fill:none;stroke:#000;stroke-miterlimit:10;}.n{fill:#1b62b6;}.o{opacity:0.24;}</style></defs><g transform="translate(0 -505.179)"><g transform="translate(0 410.8)"><g transform="translate(0 94.379)"><ellipse class="a" cx="218.129" cy="1.763" rx="218.129" ry="1.763" transform="translate(0 492.447)"/><g transform="translate(64.665 243.191)"><path class="b" d="M120.737,695.759h-8.353l93.624-240.678h14.83Z" transform="translate(-112.384 -444.278)"/><path class="b" d="M298.839,695.759h-8.353l93.624-240.678h14.83Z" transform="translate(-125.688 -444.278)"/><path class="b" d="M572.79,695.759h8.353L487.519,455.081h-14.83Z" transform="translate(-139.299 -444.278)"/><rect class="c" width="271.588" height="10.804" transform="translate(36.431)"/><rect class="a" width="123.54" height="10.804" transform="translate(308.02)"/></g><g transform="translate(434.117 146.042)"><g transform="translate(17.578 15.03)"><path class="d" d="M551.4,357.6a2.849,2.849,0,0,1-.074.675l-.8,3.461-5.746-1.332.8-3.47a2.948,2.948,0,0,1,5.82.666Z" transform="translate(-531.714 -354.656)"/><path class="e" d="M549.462,362.2l-.657,2.85-12.4,53.362-5.746-1.332,13.056-56.212Z" transform="translate(-530.66 -355.12)"/><path class="f" d="M550.472,362.2l-.666,2.85-5.746-1.332.657-2.85,5.746,1.332Z" transform="translate(-531.661 -355.12)"/></g><g transform="translate(7.274)"><rect class="g" width="14.112" height="77.509" transform="translate(2.851 0) rotate(2.108)"/><g transform="translate(2.731 2.34)"><rect class="c" width="0.925" height="4.776" transform="translate(0 0.924) rotate(-87.891)"/></g><g transform="translate(2.645 4.673)"><rect class="c" width="0.925" height="2.931" transform="matrix(0.037, -0.999, 0.999, 0.037, 0, 0.924)"/></g><g transform="translate(2.559 7.005)"><rect class="c" width="0.925" height="4.776" transform="translate(0 0.924) rotate(-87.891)"/></g><g transform="translate(2.473 9.338)"><rect class="c" width="0.925" height="2.931" transform="translate(0 0.924) rotate(-87.897)"/></g><g transform="translate(2.388 11.67)"><rect class="c" width="0.925" height="4.776" transform="translate(0 0.924) rotate(-87.891)"/></g><g transform="translate(2.302 14.002)"><rect class="c" width="0.925" height="2.931" transform="translate(0 0.924) rotate(-87.888)"/></g><g transform="translate(2.216 16.335)"><rect class="c" width="0.925" height="4.776" transform="matrix(0.037, -0.999, 0.999, 0.037, 0, 0.924)"/></g><g transform="translate(2.13 18.667)"><rect class="c" width="0.925" height="2.931" transform="translate(0 0.924) rotate(-87.888)"/></g><g transform="translate(2.044 20.999)"><rect class="c" width="0.925" height="4.776" transform="translate(0 0.924) rotate(-87.891)"/></g><g transform="translate(1.958 23.332)"><rect class="c" width="0.925" height="2.931" transform="translate(0 0.924) rotate(-87.897)"/></g><g transform="translate(1.873 25.664)"><rect class="c" width="0.925" height="4.776" transform="translate(0 0.924) rotate(-87.891)"/></g><g transform="translate(1.787 27.996)"><rect class="c" width="0.925" height="2.931" transform="translate(0 0.924) rotate(-87.888)"/></g><g transform="translate(1.701 30.329)"><rect class="c" width="0.925" height="4.776" transform="matrix(0.037, -0.999, 0.999, 0.037, 0, 0.924)"/></g><g transform="translate(1.615 32.661)"><rect class="c" width="0.925" height="2.931" transform="translate(0 0.924) rotate(-87.897)"/></g><g transform="translate(1.529 34.993)"><rect class="c" width="0.925" height="4.776" transform="translate(0 0.924) rotate(-87.891)"/></g><g transform="translate(1.443 37.326)"><rect class="c" width="0.925" height="2.931" transform="translate(0 0.924) rotate(-87.888)"/></g><g transform="translate(1.357 39.658)"><rect class="c" width="0.925" height="4.776" transform="translate(0 0.924) rotate(-87.891)"/></g><g transform="translate(1.271 41.991)"><rect class="c" width="0.925" height="2.931" transform="translate(0 0.924) rotate(-87.889)"/></g><g transform="translate(1.185 44.323)"><rect class="c" width="0.925" height="4.777" transform="translate(0 0.924) rotate(-87.891)"/></g><g transform="translate(1.1 46.655)"><rect class="c" width="0.925" height="2.931" transform="matrix(0.037, -0.999, 0.999, 0.037, 0, 0.924)"/></g><g transform="translate(1.014 48.988)"><rect class="c" width="0.925" height="4.777" transform="translate(0 0.924) rotate(-87.891)"/></g><g transform="translate(0.928 51.32)"><rect class="c" width="0.925" height="2.931" transform="matrix(0.037, -0.999, 0.999, 0.037, 0, 0.924)"/></g><g transform="translate(0.842 53.653)"><rect class="c" width="0.925" height="4.777" transform="translate(0 0.924) rotate(-87.891)"/></g><g transform="translate(0.756 55.985)"><rect class="c" width="0.925" height="2.931" transform="matrix(0.037, -0.999, 0.999, 0.037, 0, 0.924)"/></g><g transform="translate(0.67 58.317)"><rect class="c" width="0.925" height="4.777" transform="translate(0 0.924) rotate(-87.891)"/></g><g transform="translate(0.584 60.65)"><rect class="c" width="0.925" height="2.931" transform="matrix(0.037, -0.999, 0.999, 0.037, 0, 0.924)"/></g><g transform="translate(0.499 62.982)"><rect class="c" width="0.926" height="4.777" transform="translate(0 0.925) rotate(-87.897)"/></g><g transform="translate(0.413 65.314)"><rect class="c" width="0.926" height="2.931" transform="matrix(0.037, -0.999, 0.999, 0.037, 0, 0.925)"/></g><g transform="translate(0.327 67.646)"><rect class="c" width="0.926" height="4.777" transform="translate(0 0.925) rotate(-87.897)"/></g><g transform="translate(0.241 69.979)"><rect class="c" width="0.926" height="2.931" transform="matrix(0.037, -0.999, 0.999, 0.037, 0, 0.925)"/></g><g transform="translate(0.155 72.311)"><rect class="c" width="0.926" height="4.777" transform="translate(0 0.925) rotate(-87.886)"/></g><g transform="translate(0.069 74.643)"><rect class="c" width="0.926" height="2.931" transform="translate(0 0.925) rotate(-87.88)"/></g></g><rect class="d" width="32.367" height="40.229" transform="translate(2.801 38.63)"/><path class="f" d="M542.479,395.965l-10.3,25.6h16.183V395.9Z" transform="translate(-513.195 -342.707)"/><path class="h" d="M1.872,0H3.483a0,0,0,0,1,0,0V3.745a0,0,0,0,1,0,0H1.872A1.872,1.872,0,0,1,0,1.872v0A1.872,1.872,0,0,1,1.872,0Z" transform="translate(25.225 53.258)"/><rect class="a" width="4.18" height="39.404" transform="translate(27.856 53.258)"/><rect class="a" width="4.181" height="13.802" transform="translate(6.257 78.859)"/><path class="a" d="M4.487,0h29a4.487,4.487,0,0,1,4.487,4.487v0a0,0,0,0,1,0,0H0a0,0,0,0,1,0,0v0A4.487,4.487,0,0,1,4.487,0Z" transform="translate(0 92.663)"/></g><g transform="translate(143.95 157.163)"><path class="i" d="M236.1,403.585l-8.292,36.85H205.134l-6.942-30.849a4.922,4.922,0,0,1,4.8-6Z" transform="translate(-198.07 -354.403)"/><path class="i" d="M254.61,409.587l-6.942,30.849H230.214l8.292-36.85h11.3A4.922,4.922,0,0,1,254.61,409.587Z" transform="translate(-200.471 -354.403)"/><path class="e" d="M219.712,399.649s-4.056-32.811,9.676-49.217c0,0,10.031,15.033,5.329,49.142Z" transform="translate(-199.645 -350.432)"/><path class="e" d="M243.279,400.844s11.6-19.406,5-33.412c0,0-15.006,10.8-16.605,33.412Z" transform="translate(-200.58 -351.702)"/><path class="j" d="M219.3,385.73l3.175,16.555H229.4S224.348,387.88,219.3,385.73Z" transform="translate(-199.656 -353.069)"/><path class="e" d="M210.567,400.844s-11.6-19.406-5-33.412c0,0,15,10.8,16.605,33.412Z" transform="translate(-198.478 -351.702)"/><line class="j" x1="2.8" y2="18.557" transform="translate(33.521 30.659)"/></g><g transform="translate(245.39 96.323)"><path class="i" d="M500.764,284.68,473,396.308H307.7L335.459,284.68Z" transform="translate(-307.7 -284.68)"/><path class="a" d="M520.049,292.474l-25.82,103.834H486.2L513.956,284.68h0A6.279,6.279,0,0,1,520.049,292.474Z" transform="translate(-321.034 -284.68)"/><path class="k" d="M472,379.575H319.443l21.575-88.629H493.58Z" transform="translate(-308.577 -285.148)"/><path class="i" d="M430.019,431.728h-29.61L388.38,405.32h29.61Z" transform="translate(-313.727 -293.692)"/><path class="a" d="M438.784,431.728h-6.375L420.38,405.32h6.375Z" transform="translate(-316.117 -293.692)"/><path class="i" d="M458.834,442.662h-92.78l9.253-9.207h74.274Z" transform="translate(-312.059 -295.793)"/><path class="a" d="M388.38,405.32l34.98,11.79-5.37-11.79Z" transform="translate(-313.727 -293.692)"/><path class="l" d="M341.469,295.852l96.8,83.873,35.384-.15L371.1,290.946H342.664Z" transform="translate(-310.223 -285.148)"/><path class="l" d="M383.595,290.946l94.661,82.635,2.839-11.662-83.166-70.973Z" transform="translate(-313.369 -285.148)"/></g><g transform="translate(89.092)"><rect class="a" width="16.163" height="8.803" transform="translate(102.415 9.456) rotate(62.915)"/><path class="a" d="M11.4,0H45.615a11.4,11.4,0,0,1,11.4,11.4v0a0,0,0,0,1,0,0H0a0,0,0,0,1,0,0v0A11.4,11.4,0,0,1,11.4,0Z" transform="translate(23.408 231.788)"/><path class="a" d="M178.469,421.657h-2.813l-31.88-116.738,3.421,2.226Z" transform="translate(-139.157 -189.869)"/><path class="a" d="M153.247,306.026h-8.815l1.726-16.08h7.09a7.265,7.265,0,0,1,7.265,7.265v1.551A7.265,7.265,0,0,1,153.247,306.026Z" transform="translate(-139.206 -188.751)"/><path class="a" d="M227.111,192.3l-2.555-1.177L146.923,283.68l2.556,1.177Z" transform="translate(-139.392 -181.368)"/><path class="i" d="M8.04,0h.775A7.265,7.265,0,0,1,16.08,7.265v1.55A7.265,7.265,0,0,1,8.815,16.08H8.04A8.04,8.04,0,0,1,0,8.04v0A8.04,8.04,0,0,1,8.04,0Z" transform="translate(0 101.195)"/><path class="a" d="M190.174,421.657H187.36l-32.2-116.738h2.813Z" transform="translate(-140.007 -189.869)"/><path class="a" d="M237.872,197.2l-2.556-1.177-76.3,90.935,1.752,2.134Z" transform="translate(-140.295 -181.735)"/><circle class="k" cx="3.401" cy="3.401" r="3.401" transform="translate(4.401 105.747)"/><path class="a" d="M0,0H5.453A7.851,7.851,0,0,1,13.3,7.851v.378A7.851,7.851,0,0,1,5.453,16.08H0a0,0,0,0,1,0,0V0A0,0,0,0,1,0,0Z" transform="translate(90.777)"/><path class="i" d="M8.04,0h.775A7.265,7.265,0,0,1,16.08,7.265v1.55A7.265,7.265,0,0,1,8.815,16.08H8.04A8.04,8.04,0,0,1,0,8.04v0A8.04,8.04,0,0,1,8.04,0Z" transform="translate(82.774)"/><circle class="k" cx="3.401" cy="3.401" r="3.401" transform="translate(87.176 4.551)"/><path class="m" d="M241.75,248.19" transform="translate(-146.475 -185.631)"/><g transform="translate(80.426 22.086)"><path class="n" d="M281.357,224.6a12.117,12.117,0,0,1-.12,1.74,14.133,14.133,0,0,1-8.244,11.215l-18.413,8.309a14.212,14.212,0,0,1-18.793-7.106,24.308,24.308,0,1,1,44.313-20A14.1,14.1,0,0,1,281.357,224.6Z" transform="translate(-226.295 -204.45)"/><path class="a" d="M281.843,228.106a14.133,14.133,0,0,1-8.244,11.215l-18.413,8.309a14.2,14.2,0,0,1-13.435-.944,43.536,43.536,0,0,1,11.224-10.613,46.99,46.99,0,0,1,13.5-6.237A48.874,48.874,0,0,1,281.843,228.106Z" transform="translate(-226.902 -206.214)"/><path class="k" d="M268.305,233.579a7.453,7.453,0,0,1-14.425,2.637,46.99,46.99,0,0,1,13.5-6.237A7.385,7.385,0,0,1,268.305,233.579Z" transform="translate(-227.808 -206.357)"/><path class="o" d="M280.645,227.958,488.138,427.17H225.7l14.848-180.633S254.11,218.707,280.645,227.958Z" transform="translate(-225.703 -206.065)"/></g></g><g transform="translate(354.041 226.395)"><path class="d" d="M468.752,441.474l-43.614.575c-.2-4.675,1.533-7.7,4.467-10.9a16.869,16.869,0,0,1,11.754-5.467l9.742-.416a17.178,17.178,0,0,1,3.293.178A16.946,16.946,0,0,1,468.752,441.474Z" transform="translate(-425.122 -425.253)"/><path class="a" d="M470.7,442.456H443.368a16.954,16.954,0,0,1,13.669-16.626A16.946,16.946,0,0,1,470.7,442.456Z" transform="translate(-426.485 -425.296)"/></g><g transform="translate(199.233 225.915)"><path class="i" d="M408.237,442.263H257.816l9.253-13.2H398.984Z" transform="translate(-257.816 -425.058)"/><path class="a" d="M416.441,442.263H367.654v-13.2h39.534Z" transform="translate(-266.021 -425.058)"/><path class="h" d="M282.754,428.736h-9.8l.925-4h7.953Z" transform="translate(-258.947 -424.735)"/><path class="h" d="M294.842,428.736h-9.8l.925-4h7.953Z" transform="translate(-259.85 -424.735)"/><path class="h" d="M361.754,428.736h-9.8l.925-4h7.953Z" transform="translate(-264.848 -424.735)"/><path class="h" d="M373.842,428.736h-9.8l.925-4h7.953Z" transform="translate(-265.751 -424.735)"/><path class="h" d="M386.207,428.736h-9.8l.925-4h7.953Z" transform="translate(-266.675 -424.735)"/><path class="h" d="M398.295,428.736h-9.8l.925-4h7.953Z" transform="translate(-267.578 -424.735)"/><path class="h" d="M344.523,428.736H296.782l.925-4H343.6Z" transform="translate(-260.727 -424.735)"/></g><g transform="translate(5.49 228.012)"><path class="a" d="M55.86,704.427H48.432L99.324,571.119h10.2Z" transform="translate(-48.432 -437.766)"/><path class="a" d="M145.4,704.427h-7.427l50.892-133.308h10.2Z" transform="translate(-55.121 -437.766)"/><path class="a" d="M300.519,704.427h7.427L257.055,571.119h-10.2Z" transform="translate(-63.254 -437.766)"/><path class="f" d="M0,0H80.776a5.1,5.1,0,0,1,5.1,5.1v0a5.1,5.1,0,0,1-5.1,5.1H0a0,0,0,0,1,0,0V0A0,0,0,0,1,0,0Z" transform="translate(128.267 124.24)"/><path class="d" d="M189.836,561.443H101.007L67.291,438.973A9.462,9.462,0,0,1,76.414,427h68.413a10.5,10.5,0,0,1,10.12,7.711Z" transform="translate(-49.815 -427)"/><path class="f" d="M144.8,427,184.1,561.443h11.554L160.763,434.711A10.5,10.5,0,0,0,150.643,427Z" transform="translate(-55.631 -427)"/></g></g></g></g></svg>